Coordinates
version=1
nRows=11
nColumns=40
inDegrees=yes

Units are S.I. units (second, meters, Newtons, ...)
If the header above contains a line with 'inDegrees', this indicates whether rotational values are in degrees (yes) or radians (no).

endheader
time	pelvis_tilt	pelvis_list	pelvis_rotation	pelvis_tx	pelvis_ty	pelvis_tz	hip_flexion_r	hip_adduction_r	hip_rotation_r	knee_angle_r	knee_angle_r_beta	ankle_angle_r	subtalar_angle_r	mtp_angle_r	hip_flexion_l	hip_adduction_l	hip_rotation_l	knee_angle_l	knee_angle_l_beta	ankle_angle_l	subtalar_angle_l	mtp_angle_l	lumbar_extension	lumbar_bending	lumbar_rotation	arm_flex_r	arm_add_r	arm_rot_r	elbow_flex_r	pro_sup_r	wrist_flex_r	wrist_dev_r	arm_flex_l	arm_add_l	arm_rot_l	elbow_flex_l	pro_sup_l	wrist_flex_l	wrist_dev_l
      2.44000000	    -17.47968861	     -3.94533361	     -7.12535591	     -1.10025510	      0.93913019	      0.29537877	     38.23947389	      4.56036920	     -9.13655451	     39.19664258	      0.68411047	     17.37878524	      0.00000000	      0.00000000	     19.55303230	     -7.88636596	     -4.53255715	    115.39667355	      2.01405190	     -4.41978597	      0.00000000	      0.00000000	    -14.61407666	      8.34355377	      1.09186029	      8.61882579	    -19.22996625	     -4.53371312	     79.96183654	     87.93909561	      0.00000000	      0.00000000	     -7.00871182	    -20.63411720	      5.83578972	     59.16931389	     87.46260692	      0.00000000	      0.00000000
      2.44500000	    -17.61262602	     -3.72007993	     -8.31069309	     -1.07085665	      0.93720971	      0.29764525	     36.96517700	      5.00441123	     -7.81400939	     40.47371926	      0.70639966	     19.30359699	      0.00000000	      0.00000000	     22.60206558	     -8.51034367	     -4.53833089	    118.33233387	      2.06528884	     -3.06440458	      0.00000000	      0.00000000	    -14.36978754	      7.76602613	      2.33185236	     12.47750162	    -18.25472826	     -3.49599900	     81.41570179	     87.98433413	      0.00000000	      0.00000000	     -9.21484345	    -20.57174747	      5.98656021	     56.27459596	     87.46035674	      0.00000000	      0.00000000
      2.45000000	    -17.22339036	     -3.55156875	     -9.05331224	     -1.04093556	      0.93657061	      0.29890809	     34.93078961	      5.04426070	     -6.92998941	     41.41492550	      0.72282681	     20.95828971	      0.00000000	      0.00000000	     25.23906499	     -8.89934460	     -4.11698233	    120.72778011	      2.10709726	     -2.05726534	      0.00000000	      0.00000000	    -14.63684290	      7.27337564	      3.48323817	     16.14277639	    -17.41205381	     -2.84724584	     83.06147212	     88.05903558	      0.00000000	      0.00000000	    -11.05277913	    -20.64922156	      6.74773940	     53.57210176	     87.46410900	      0.00000000	      0.00000000
      2.45500000	    -17.09700409	     -3.31436092	     -9.87219793	     -1.01111475	      0.93570291	      0.30045242	     33.09759454	      5.06967181	     -5.84019308	     42.11141515	      0.73498285	     22.37431188	      0.00000000	      0.00000000	     28.23495287	     -9.33655640	     -3.73403006	    122.82846949	      2.14376121	     -0.65507877	      0.00000000	      0.00000000	    -14.59013803	      6.69603372	      4.67192420	     19.64082793	    -16.54953295	     -2.27174879	     84.85637279	     88.11900259	      0.00000000	      0.00000000	    -13.15814722	    -20.82297956	      7.28090163	     51.55009781	     87.47054782	      0.00000000	      0.00000000
      2.46000000	    -17.20981605	     -3.00163424	    -10.71072516	     -0.98111375	      0.93466835	      0.30206591	     31.46183531	      5.01112113	     -4.65479421	     42.64719059	      0.74433389	     23.21724183	      0.00000000	      0.00000000	     31.54888852	     -9.79891882	     -3.38778695	    124.51973544	      2.17327937	      0.64437597	      0.00000000	      0.00000000	    -14.21275136	      6.06218946	      5.86663527	     22.89114919	    -15.67929895	     -1.85560819	     86.79923142	     88.16064040	      0.00000000	      0.00000000	    -15.51003267	    -20.99638960	      7.52513754	     50.10108742	     87.49925256	      0.00000000	      0.00000000
      2.46500000	    -17.60168136	     -2.59975077	    -11.52170221	     -0.95135107	      0.93337775	      0.30383779	     30.14991381	      4.86007321	     -3.44524395	     43.10010645	      0.75223877	     23.48613363	      0.00000000	      0.00000000	     35.31424971	    -10.22329172	     -2.92273969	    125.84813938	      2.19646439	      1.53829859	      0.00000000	      0.00000000	    -13.49240374	      5.36364279	      7.05452406	     25.99999961	    -14.84421573	     -1.55523304	     88.93331178	     88.20381054	      0.00000000	      0.00000000	    -17.99084373	    -21.22602015	      7.36356419	     49.04594996	     87.57368586	      0.00000000	      0.00000000
      2.47000000	    -17.30666108	     -2.22099821	    -11.86622744	     -0.92036168	      0.93370881	      0.30466800	     27.79964308	      4.25041570	     -2.70947125	     42.98097965	      0.75015961	     23.48576737	      0.00000000	      0.00000000	     38.31235952	    -10.21604067	     -2.30849164	    126.51916256	      2.20817595	      2.24757189	      0.00000000	      0.00000000	    -13.42568019	      4.66153425	      7.96344534	     28.96258535	    -14.21333040	     -1.39442362	     91.12564625	     88.24779958	      0.00000000	      0.00000000	    -20.21736465	    -21.62989619	      7.77678330	     48.16289875	     87.62121013	      0.00000000	      0.00000000
      2.47500000	    -17.07437133	     -1.80491132	    -12.15758391	     -0.88897013	      0.93413743	      0.30558286	     25.44947005	      3.56833183	     -1.96530951	     42.66865410	      0.74470850	     23.10349357	      0.00000000	      0.00000000	     41.32900561	    -10.14945222	     -1.75811944	    126.75227172	      2.21224448	      2.96017924	      0.00000000	      0.00000000	    -13.22367590	      3.92560049	      8.79264227	     31.75452294	    -13.63319930	     -1.22782288	     93.44391380	     88.29083211	      0.00000000	      0.00000000	    -22.57718233	    -22.08164749	      7.97744895	     47.59012431	     87.66822223	      0.00000000	      0.00000000
      2.48000000	    -17.00827153	     -1.30357309	    -12.45394157	     -0.85733240	      0.93443197	      0.30666534	     23.23853375	      2.80169140	     -1.22499508	     42.14541729	      0.73557630	     22.24709836	      0.00000000	      0.00000000	     44.45759929	    -10.07137312	     -1.34421206	    126.62732587	      2.21006376	      3.86324223	      0.00000000	      0.00000000	    -12.75964702	      3.11235103	      9.48773344	     34.48240793	    -13.03422402	     -0.95633626	     95.64819693	     88.31704683	      0.00000000	      0.00000000	    -25.21517826	    -22.52259440	      7.75695774	     47.46952834	     87.71080496	      0.00000000	      0.00000000
      2.48500000	    -17.13519998	     -0.69774536	    -12.73673679	     -0.82568049	      0.93444390	      0.30782551	     21.34317118	      1.93713061	     -0.48984018	     41.70313867	      0.72785708	     20.92081610	      0.00000000	      0.00000000	     47.77556258	     -9.95226739	     -1.04132329	    126.14403341	      2.20162871	      4.68049327	      0.00000000	      0.00000000	    -12.05125211	      2.21256552	      9.86733725	     37.23447197	    -12.33559275	     -0.37803375	     97.76781172	     88.33101231	      0.00000000	      0.00000000	    -28.22214137	    -22.69579087	      6.54291223	     47.61555696	     87.77943464	      0.00000000	      0.00000000
      2.49000000	    -17.10639340	     -0.13272936	    -12.80223214	     -0.79327917	      0.93508478	      0.30889255	     19.08004262	      1.00308653	      0.09417767	     40.78833259	      0.71189070	     19.20107858	      0.00000000	      0.00000000	     50.78984583	     -9.70378851	     -0.73538727	    125.18299074	      2.18485536	      5.18001844	      0.00000000	      0.00000000	    -11.43241828	      1.34167256	     10.32728314	     39.61373849	    -11.84142129	     -0.15570566	    100.10958094	     88.34454222	      0.00000000	      0.00000000	    -30.93807690	    -23.21818581	      6.18606128	     47.81947138	     87.81348430	      0.00000000	      0.00000000
